<svg width="885" height="150" viewBox="0 0 885 150" fill="none" xmlns="http://www.w3.org/2000/svg">
  <path
    d="M27 150C29.16 150 31 148.209 31 146V53C31 53 36 62 45 77L84 144C85.785 147.74 89.744 150 93 150H120V0H93C91.202 0 89 1.4941 89 4V98L71 66L35 5C33.248 1.8912 29.479 0 26 0H0V150H27Z"
    fill="white" />
  <path
    d="M376 42H389C392.314 42 395 39.3137 395 36V10H423V42H450V66H423V109C423 119.5 428.057 124 437 124H450V150H433C409.948 150 395 135.071 395 110V66H376V42Z"
    fill="white" />
  <path
    d="M241 42V104C241 118.004 235.742 129.809 228 138C220.258 146.191 209.566 150 195 150C180.434 150 168.742 146.191 161 138C153.389 129.809 148 118.004 148 104V42H164C167.412 42 170.769 42.622 173 45C175.231 47.2459 176 48.5652 176 52V104C176 112.059 176.457 117.037 180 121C183.543 124.831 187.914 126 195 126C202.217 126 205.457 124.831 209 121C212.543 117.037 213 112.059 213 104V52C213 48.5652 213.769 46.378 216 44C217.96 41.9107 220.028 41.9599 223 42C223.411 42.0055 224.586 42 225 42H241Z"
    fill="white" />
  <path
    d="M326 94L360 42H334C330.723 42 327.812 43.1758 326 46L310 70L295 47C293.188 44.1758 289.277 42 286 42H261L295 93L258 150H284C287.25 150 290.182 146.787 292 144L310 117L329 145C330.818 147.787 333.75 150 337 150H363L326 94Z"
    fill="white" />
  <path
    d="M540.18 145.352C534.68 145.352 529.56 144.264 524.82 142.088C520.09 139.912 516.38 136.968 513.69 133.256V143.816H487V5H513.69V57.224C516.5 53.64 520.22 50.824 524.82 48.776C529.43 46.6 534.68 45.512 540.57 45.512C549.78 45.512 557.78 47.56 564.57 51.656C571.48 55.752 576.73 61.576 580.31 69.128C584.02 76.68 585.88 85.448 585.88 95.432C585.88 105.416 584.02 114.184 580.31 121.736C576.73 129.288 571.48 135.112 564.57 139.208C557.66 143.304 549.53 145.352 540.18 145.352ZM512.15 95.432C512.15 103.496 514.33 110.024 518.68 115.016C523.03 119.88 528.73 122.312 535.77 122.312C542.81 122.312 548.5 119.88 552.85 115.016C557.21 110.024 559.38 103.496 559.38 95.432C559.38 87.24 557.21 80.712 552.85 75.848C548.63 70.856 542.94 68.36 535.77 68.36C528.6 68.36 522.84 70.856 518.49 75.848C514.26 80.712 512.15 87.24 512.15 95.432Z"
    fill="#3ECF8E" />
  <path
    d="M630.33 145.352C624.19 145.352 618.69 144.136 613.82 141.704C609.09 139.144 605.37 135.688 602.69 131.336C600 126.856 598.65 121.864 598.65 116.36C598.65 106.888 601.85 99.464 608.25 94.088C614.78 88.584 623.42 85.832 634.17 85.832H650.3C652.61 85.832 654.4 85.192 655.68 83.912C656.96 82.504 657.6 80.776 657.6 78.728C657.6 74.632 656.06 71.368 652.99 68.936C650.05 66.376 645.89 65.096 640.51 65.096C634.88 65.096 630.46 66.568 627.26 69.512C624.19 72.456 622.59 76.104 622.46 80.456H598.65C599.04 73.928 600.96 68.04 604.41 62.792C608 57.416 612.99 53.192 619.39 50.12C625.79 47.048 633.28 45.512 641.85 45.512C650.05 45.512 657.34 47.048 663.74 50.12C670.14 53.064 675.13 57.288 678.72 62.792C682.43 68.168 684.29 74.44 684.29 81.608V143.816H657.6V130.376C655.93 134.856 652.61 138.504 647.61 141.32C642.75 144.008 636.99 145.352 630.33 145.352ZM624.38 115.208C624.38 118.408 625.6 121.032 628.03 123.08C630.46 125 633.53 125.96 637.25 125.96C643.52 125.96 648.45 123.912 652.03 119.816C655.74 115.592 657.6 110.344 657.6 104.072V102.728H638.21C634.11 102.728 630.78 103.88 628.22 106.184C625.66 108.488 624.38 111.496 624.38 115.208Z"
    fill="#3ECF8E" />
  <path
    d="M739.81 145.352C728.04 145.352 718.44 142.28 711.01 136.136C703.59 129.992 699.62 121.672 699.11 111.176H722.15C722.79 115.528 724.65 118.984 727.72 121.544C730.92 123.976 734.95 125.192 739.81 125.192C744.04 125.192 747.43 124.296 749.99 122.504C752.55 120.712 753.83 118.472 753.83 115.784C753.83 112.2 752.29 109.704 749.22 108.296C746.15 106.888 741.29 105.608 734.63 104.456C727.72 103.176 722.09 101.768 717.73 100.232C713.38 98.696 709.61 95.944 706.41 91.976C703.33 87.88 701.8 82.12 701.8 74.696C701.8 69.064 703.27 64.072 706.21 59.72C709.29 55.24 713.45 51.784 718.69 49.352C724.07 46.792 730.02 45.512 736.55 45.512C748.2 45.512 757.61 48.392 764.77 54.152C772.07 59.912 775.91 67.528 776.29 77H753.25C752.74 73.032 750.89 69.96 747.69 67.784C744.61 65.48 741.16 64.328 737.32 64.328C733.35 64.328 730.21 65.16 727.91 66.824C725.73 68.36 724.65 70.664 724.65 73.736C724.65 77.32 726.12 79.752 729.06 81.032C732.13 82.184 736.93 83.208 743.46 84.104C750.5 85.128 756.26 86.408 760.74 87.944C765.35 89.352 769.25 92.168 772.45 96.392C775.78 100.616 777.45 106.76 777.45 114.824C777.45 124.04 773.99 131.464 767.08 137.096C760.29 142.6 751.21 145.352 739.81 145.352Z"
    fill="#3ECF8E" />
  <path
    d="M838.85 145.352C828.36 145.352 819.33 142.984 811.78 138.248C804.35 133.384 798.72 127.112 794.88 119.432C791.04 111.752 789.12 103.688 789.12 95.24C789.12 86.664 790.85 78.6 794.31 71.048C797.89 63.496 803.27 57.352 810.44 52.616C817.73 47.88 826.56 45.512 836.93 45.512C847.68 45.512 856.64 47.816 863.81 52.424C870.98 57.032 876.23 62.92 879.55 70.088C883.01 77.256 884.74 84.808 884.74 92.744C884.74 95.688 884.61 98.568 884.35 101.384H814.85C815.88 108.296 818.44 113.736 822.53 117.704C826.76 121.544 832.2 123.464 838.85 123.464C844.23 123.464 848.64 122.44 852.1 120.392C855.56 118.216 857.8 115.08 858.82 110.984H884.93C883.01 121.352 877.83 129.672 869.38 135.944C860.93 142.216 850.76 145.352 838.85 145.352ZM858.05 84.488C857.67 78.856 855.62 74.248 851.91 70.664C848.19 66.952 843.2 65.096 836.93 65.096C830.79 65.096 825.92 66.696 822.34 69.896C818.75 72.968 816.39 77.832 815.23 84.488H858.05Z"
    fill="#3ECF8E" />
</svg>