<svg width="786" height="128" viewBox="0 0 786 128" fill="none" xmlns="http://www.w3.org/2000/svg">
<path d="M684.804 43.3641C697.705 43.3641 704.737 49.0115 708.148 54.8748L708.462 55.4336C708.765 55.9928 709.036 56.5524 709.277 57.1077L709.508 57.6614L709.719 58.2112C709.819 58.4849 709.913 58.7568 709.999 59.0262L710.163 59.5617C710.188 59.6503 710.213 59.7386 710.237 59.8266L710.374 60.3504C710.395 60.4369 710.416 60.5231 710.435 60.6089L710.545 61.1185C710.562 61.2026 710.579 61.2862 710.594 61.3694L710.679 61.8626C710.692 61.9438 710.704 62.0245 710.715 62.1047L710.776 62.5792L695.84 65.9622L695.767 65.5049C695.698 65.1204 695.607 64.7281 695.492 64.3333L695.342 63.8588C694.181 60.4547 691.17 57.0311 684.937 57.0311C680.226 57.0311 676.46 59.8726 676.46 63.6616C676.46 66.8078 678.732 68.811 682.177 69.5482L682.514 69.6156L691.935 71.6452C704.989 74.3518 711.581 82.3356 711.581 92.0786C711.581 102.904 703.239 114 685.879 114C673.016 114 665.597 108.582 661.739 102.702L661.377 102.132L661.036 101.56L660.717 100.987L660.419 100.414C660.275 100.128 660.139 99.842 660.011 99.5572L659.764 98.989L659.537 98.4244C659.501 98.3306 659.465 98.2371 659.431 98.1437L659.233 97.5864L659.053 97.0352L658.892 96.4911C658.867 96.4011 658.842 96.3114 658.819 96.222L658.685 95.6905L658.568 95.1685L658.469 94.6571L658.386 94.1573L658.32 93.6702L658.292 93.4316L673.634 90.0486C674.038 95.326 677.939 100.198 685.745 100.198C691.667 100.198 694.493 97.0853 694.493 93.567C694.493 90.6728 692.586 88.2899 687.779 87.165L687.36 87.0717L678.613 85.0419C665.826 82.2004 660.042 74.487 660.042 65.1501C660.042 53.2423 670.537 43.3641 684.804 43.3641ZM753.299 43.3641C773.755 43.3641 786 56.4897 786 77.87L785.989 78.797L785.961 79.709L785.921 80.5794L785.826 82.0887L785.733 83.3742L785.732 83.4183H738.363C738.765 92.2137 746.167 98.5738 755.049 98.5738C763.226 98.5738 767.784 94.5449 769.99 88.7801L770.122 88.425L785.06 92.8903C781.695 104.392 771.197 114 754.914 114C736.745 114 720.732 100.874 720.732 78.4114C720.732 57.1663 736.344 43.3641 753.299 43.3641ZM617.104 43.3641C637.048 43.3641 645.09 54.1108 645.845 66.6713L645.883 67.467C645.892 67.7329 645.898 67.9996 645.901 68.2669L645.904 68.6684L645.906 101.902L645.925 102.913L645.962 103.96C645.969 104.137 645.977 104.314 645.986 104.492L646.045 105.561C646.055 105.739 646.067 105.917 646.079 106.095L646.156 107.15L646.243 108.174L646.338 109.152C646.355 109.311 646.372 109.466 646.388 109.619L646.492 110.496C646.546 110.914 646.6 111.299 646.655 111.642L646.709 111.97H630.292C630.078 111.039 629.902 109.577 629.783 108.025L629.713 106.982C629.703 106.808 629.693 106.634 629.685 106.46L629.643 105.432C629.626 104.928 629.618 104.44 629.618 103.986C626.256 109.264 619.929 113.865 610.106 113.865C595.976 113.865 587.364 104.257 587.364 93.8376C587.364 82.0997 595.864 75.4896 606.675 73.7479L607.147 73.6752L623.428 71.2395C627.197 70.6983 628.408 68.8038 628.408 66.5033C628.408 61.7672 624.775 57.843 617.237 57.843C609.578 57.843 605.288 62.666 604.621 68.346L604.587 68.6684L588.71 65.2855C589.786 54.8659 599.341 43.3641 617.104 43.3641ZM526.629 14V52.7008C529.59 47.9649 536.855 43.6348 546.681 43.6348C566.059 43.6348 577.23 58.655 577.23 78.4115C577.23 98.5739 564.85 113.594 546.007 113.594C537.046 113.594 530.15 109.702 526.584 104.204L526.361 103.851V111.971H509V14H526.629ZM628.408 85.0419V82.065L613.471 84.3654C608.894 85.0419 605.261 87.613 605.261 92.7552C605.261 96.6793 608.088 100.468 613.875 100.468C621.301 100.468 628.205 96.9199 628.404 85.5486L628.408 85.0419ZM542.912 59.7376C533.896 59.7376 526.361 66.368 526.361 78.5467C526.361 90.5903 533.896 97.4913 542.912 97.4913C552.064 97.4913 559.329 90.7254 559.329 78.5467C559.329 66.368 552.064 59.7376 542.912 59.7376ZM753.569 57.9782C744.441 57.9782 739.343 64.7784 738.789 70.7937L738.765 71.1041H768.373C768.103 64.4736 763.795 57.9782 753.569 57.9782Z" fill="#00DC82"/>
<path d="M202.04 113.129H222.159V68.1161C222.159 55.2351 220.817 42.354 220.817 42.354L222.003 44.9952C223.874 49.083 227.774 57.2922 232.352 65.1437L259.846 113.129H281.44V14.0438H261.188L261.19 59.9061C261.246 72.5042 262.529 84.9605 262.529 84.9605L261.515 82.6655C259.725 78.6794 255.751 70.126 251.129 62.0295L223.5 14.0438H202.04V113.129ZM345.245 41.7876V80.8557C345.245 89.915 339.478 96.7094 331.296 96.7094C323.652 96.7094 318.286 90.4811 318.286 81.8463V41.7876H299.644V86.2344C299.644 102.513 309.569 114.262 324.724 114.262C333.979 114.262 341.489 110.015 345.245 103.221V113.129H364.022V41.7876H345.245ZM418.625 76.0429L441.294 41.7876H420.771L408.434 60.6138L396.092 41.7876H375.706L398.375 75.9015L373.964 113.129H393.95L408.566 91.1889L423.05 113.129H442.902L418.625 76.0429ZM462.252 41.7876H449.241V58.2074H462.252V87.2254C462.252 103.787 472.311 113.129 487.87 113.129H499V96.5676H490.418C484.383 96.5676 480.893 93.312 480.893 86.3762V58.2074H499V41.7876H480.893V20.6966H462.252V41.7876Z" fill="white"/>
<g clip-path="url(#clip0_114_106)">
<path d="M82.4885 0.35582C84.4291 0.35582 85.5482 1.79201 84.9922 3.55446L46.5978 124.801C46.0383 126.567 44.0092 128 42.0721 128H2.83139C0.890776 128 -0.231807 126.567 0.327712 124.801L38.7185 3.55446C39.278 1.79201 41.3072 0.35582 43.2478 0.35582H82.4885Z" fill="url(#paint0_linear_114_106)"/>
<path d="M83.7386 128C81.798 128 79.7688 126.567 79.2093 124.801L40.8114 3.53673C40.2519 1.77074 41.3745 0.338089 43.3115 0.338089H82.5558C84.4929 0.338089 86.522 1.77074 87.0815 3.53673L125.479 124.801C126.039 126.567 124.92 128 122.979 128H83.7386Z" fill="#00DC82"/>
<path d="M162.627 0C164.566 0 165.684 1.4402 165.129 3.20756L126.765 124.792C126.206 126.563 124.179 128 122.243 128H83.0341C81.0951 128 79.9734 126.563 80.5325 124.792L118.892 3.20756C119.451 1.4402 121.479 0 123.418 0H162.627Z" fill="url(#paint1_linear_114_106)"/>
</g>
<defs>
<linearGradient id="paint0_linear_114_106" x1="-4899.74" y1="-6907.38" x2="-3111.72" y2="-7441.37" gradientUnits="userSpaceOnUse">
<stop stop-color="#249361"/>
<stop offset="0.53" stop-color="#54F1AB"/>
<stop offset="1" stop-color="#249361"/>
</linearGradient>
<linearGradient id="paint1_linear_114_106" x1="-4811.38" y1="-6951.49" x2="-3023.75" y2="-7483.46" gradientUnits="userSpaceOnUse">
<stop stop-color="#54F1AB"/>
<stop offset="0.53" stop-color="#00DC82"/>
<stop offset="1" stop-color="#54F1AB"/>
</linearGradient>
<clipPath id="clip0_114_106">
<rect width="128" height="165.77" fill="white" transform="matrix(0 -1 -1 0 165.771 128)"/>
</clipPath>
</defs>
</svg>
